<svg version="1.1" xmlns="http://www.w3.org/2000/svg" xmlns:xlink="http://www.w3.org/1999/xlink" width="258.13453" height="187.56842" viewBox="0,0,258.13453,187.56842"><g transform="translate(-110.93274,-80.04459)"><g data-paper-data="{&quot;isPaintingLayer&quot;:true}" fill-rule="nonzero" stroke="none" stroke-width="0" stroke-linecap="butt" stroke-linejoin="miter" stroke-miterlimit="10" stroke-dasharray="" stroke-dashoffset="0" style="mix-blend-mode: normal"><path d="M110.93274,93.69916c0,0 28.03336,33.065 47.4679,28.66375c14.69803,-3.3286 5.4728,-42.31832 5.4728,-42.31832c0,0 49.6526,40.15807 59.97024,62.76799c10.31764,22.60992 -0.66551,49.76766 -24.53154,60.6585c-23.86603,10.89084 -51.57737,1.39064 -61.89501,-21.21928c-6.87792,-15.07215 -26.48439,-88.55264 -26.48439,-88.55264z" data-paper-data="{&quot;index&quot;:null}" fill="#000000"/><path d="M154.50777,154.66721c3.01466,-1.37569 8.15362,3.4151 11.47819,10.70052c3.32457,7.28542 3.57581,14.30663 0.56115,15.68231c-3.01466,1.37569 -8.15362,-3.4151 -11.47819,-10.70052c-3.32457,-7.28542 -3.57581,-14.30663 -0.56115,-15.68231z" data-paper-data="{&quot;index&quot;:null}" fill="#ffffff"/><path d="M136.68812,164.99728c2.26099,-1.03176 6.41725,3.22321 9.28326,9.50374c2.86601,6.28054 3.35648,12.20833 1.09548,13.24009c-2.26099,1.03176 -6.41725,-3.22321 -9.28326,-9.50374c-2.86601,-6.28054 -3.35648,-12.20833 -1.09548,-13.24009z" data-paper-data="{&quot;index&quot;:null}" fill="#ffffff"/><path d="M159.07441,164.67449c0.50244,-0.22927 1.5603,1.01044 2.36278,2.76899c0.80248,1.75855 1.04571,3.37001 0.54327,3.59929c-0.50244,0.22927 -1.5603,-1.01044 -2.36278,-2.76899c-0.80248,-1.75855 -1.04571,-3.37001 -0.54327,-3.59929z" data-paper-data="{&quot;index&quot;:null}" fill="#000000"/><path d="M139.96959,173.39263c0.50244,-0.22928 1.65323,1.21409 2.57035,3.22386c0.91712,2.00978 1.25329,3.82489 0.75085,4.05417c-0.50244,0.22928 -1.65323,-1.21409 -2.57035,-3.22386c-0.91712,-2.00978 -1.25329,-3.82489 -0.75085,-4.05417z" data-paper-data="{&quot;index&quot;:null}" fill="#000000"/><path d="M284.30251,215.28688c-7.10807,19.74644 -35.19677,27.71729 -62.73786,17.80341c-27.54109,-9.91389 -44.10532,-33.95834 -36.99724,-53.70478c7.10807,-19.74644 35.19677,-27.71729 62.73786,-17.80341c27.54109,9.91389 44.10532,33.95834 36.99724,53.70478z" data-paper-data="{&quot;index&quot;:null}" fill="#000000"/><path d="M196.0984,235.8596c10.35144,-12.03249 22.04679,-18.94448 26.12232,-15.43835c4.07553,3.50613 -1.01211,16.10267 -11.36355,28.13517c-10.35144,12.03249 -22.04679,18.94448 -26.12232,15.43835c-1.30111,-1.11933 -12.04219,1.35647 -11.60235,-1.30173c0.48597,-2.93701 -3.31089,-8.63363 -1.02563,-12.64204c2.12509,-3.72748 20.59609,-10.24459 23.99151,-14.19141z" data-paper-data="{&quot;index&quot;:null}" fill="#000000"/><path d="M220.48409,221.94302c-0.06745,5.54878 -13.9437,10.25687 -30.99349,10.51581c-17.04979,0.25894 -30.8167,-4.02931 -30.74925,-9.57809c0.02154,-1.77144 -9.4372,-8.3641 -6.94692,-9.84676c2.75149,-1.63818 4.81315,-8.47342 9.68922,-9.45737c4.53431,-0.91499 22.65862,8.87326 28.25119,8.78832c17.04979,-0.25894 30.8167,4.02931 30.74925,9.57809z" data-paper-data="{&quot;index&quot;:null}" fill="#000000"/><path d="M227.54601,248.29788c4.18183,-9.62413 18.25795,-19.3247 25.09615,-16.35339c6.83819,2.97131 8.99159,13.18194 4.80974,22.80606c-4.18185,9.62413 -13.11535,15.01731 -19.95355,12.046c-3.94997,-1.71633 -18.69656,-2.49606 -19.20218,-7.53502c-0.3697,-3.68451 7.48356,-6.89872 9.24983,-10.96364z" data-paper-data="{&quot;index&quot;:null}" fill="#000000"/><path d="M264.5007,257.76101c-10.46869,0.72005 -25.56168,-7.30736 -26.07329,-14.74563c-0.51161,-7.43826 7.56018,-14.05188 18.02886,-14.77194c10.46868,-0.72006 19.36997,4.72614 19.88158,12.16441c0.29551,4.29658 6.39444,17.74549 2.15443,20.51483c-3.10031,2.02494 -9.56997,-3.46581 -13.99159,-3.16169z" data-paper-data="{&quot;index&quot;:null}" fill="#000000"/><path d="M369.06707,162.07865c-0.06758,5.12016 -18.93675,33.487 -38.04864,46.271c-9.74658,6.51952 -37.17281,6.48156 -45.65906,6.36956c-25.12677,-0.33163 -26.78415,-10.60346 -26.68211,-18.33478c0.07801,-5.91057 12.63951,-7.86701 29.50095,-9.69796c5.19413,-0.56402 10.26244,-3.77845 16.17985,-3.70035c25.12676,0.33164 64.81105,-28.63879 64.70901,-20.90747z" data-paper-data="{&quot;index&quot;:null}" fill="#000000"/></g></g></svg>