<svg version="1.1" xmlns="http://www.w3.org/2000/svg" xmlns:xlink="http://www.w3.org/1999/xlink" width="319.60543" height="215.48845" viewBox="0,0,319.60543,215.48845"><g transform="translate(-45.5,-64.32078)"><g data-paper-data="{&quot;isPaintingLayer&quot;:true}" fill-rule="nonzero" stroke-linecap="butt" stroke-linejoin="miter" stroke-miterlimit="10" stroke-dasharray="" stroke-dashoffset="0" style="mix-blend-mode: normal"><path d="M45.5,64.32078z" fill="#000000" stroke="#000000" stroke-width="2"/><g stroke="none" stroke-width="0"><path d="M347.41949,179.31616c-8.05406,23.51158 -34.70196,35.67964 -59.51974,27.17813c-24.81778,-8.50152 -38.40746,-34.45325 -30.35339,-57.96483c8.05406,-23.51158 53.53572,-68.33869 53.53572,-68.33869c0,0 -5.36298,39.70569 9.59036,41.57904c19.77212,2.47705 44.43299,-33.17411 44.43299,-33.17411c0,0 -12.31696,75.04724 -17.68594,90.72046z" fill="#000000"/><path d="M328.68705,169.19956c-2.5952,7.57595 -7.24034,12.84693 -10.37522,11.77305c-3.13488,-1.07387 -3.57237,-8.08594 -0.97718,-15.6619c2.5952,-7.57595 7.24034,-12.84693 10.37522,-11.77305c3.13488,1.07387 3.57237,8.08594 0.97718,15.6619z" fill="#ffffff"/><path d="M346.66168,175.3569c-2.23724,6.53099 -5.95687,11.1725 -8.30803,10.36709c-2.35116,-0.80541 -2.44351,-6.75273 -0.20627,-13.28373c2.23724,-6.53099 5.95687,-11.1725 8.30803,-10.36709c2.35116,0.80541 2.44351,6.75273 0.20627,13.28373z" fill="#ffffff"/><path d="M323.95688,167.57921c-0.62643,1.82868 -1.5578,3.16602 -2.08028,2.98704c-0.52248,-0.17898 -0.43821,-1.80651 0.18821,-3.63519c0.62643,-1.82868 1.5578,-3.16602 2.08028,-2.98704c0.52248,0.17898 0.43821,1.80651 -0.18821,3.63519z" fill="#000000"/><path d="M343.66154,174.85771c-0.71592,2.08992 -1.71984,3.63904 -2.24231,3.46006c-0.52248,-0.17898 -0.36566,-2.01829 0.35025,-4.10821c0.71592,-2.08992 1.71984,-3.63904 2.24231,-3.46006c0.52248,0.17898 0.36566,2.01829 -0.35025,4.10821z" fill="#000000"/><path d="M236.03545,169.50615c26.43795,-12.56309 55.17218,-7.38102 64.17968,11.57449c9.00751,18.95551 -5.12266,44.50639 -31.56061,57.0695c-26.43795,12.56309 -55.17218,7.38102 -64.17968,-11.57449c-9.00751,-18.95551 5.12266,-44.50639 31.56061,-57.0695z" fill="#000000"/><path d="M306.11463,241.99323c0.9559,5.23165 13.87425,20.51023 13.82359,24.89285c-0.05447,4.71294 -6.34171,7.77475 -7.42925,10.61455c-0.98431,2.57022 -9.17466,-5.15618 -10.89932,-4.84106c-5.40224,0.98707 -12.14406,-11.14236 -15.05828,-27.09184c-2.91421,-15.94948 -0.89727,-29.67928 4.50497,-30.66635c5.40224,-0.98707 12.14406,11.14236 15.05828,27.09184z" fill="#000000"/><path d="M287.21035,236.77214c1.0094,5.52441 14.65065,21.65796 14.59715,26.28583c-0.05753,4.97667 -6.69658,8.20981 -7.84498,11.20852c-1.03938,2.71404 -9.68806,-5.44471 -11.50923,-5.11195c-5.70455,1.04231 -12.82364,-11.76588 -15.90093,-28.60788c-3.07729,-16.842 -0.94748,-31.3401 4.75707,-32.38241c5.70455,-1.04231 12.82364,11.76588 15.90093,28.60788z" fill="#000000"/><path d="M235.46713,256.18403c-1.43631,4.19289 2.19629,11.8616 -0.56098,14.33339c-3.77087,3.38044 -15.18716,-5.98644 -19.26147,-7.38213c-7.05348,-2.41622 -10.01471,-12.42247 -6.6141,-22.34958c3.4006,-9.92711 11.87532,-16.01589 18.92878,-13.59967c7.05348,2.41622 10.90839,19.07088 7.50778,28.99799z" fill="#000000"/><path d="M260.7398,264.74512c-1.4363,4.19288 2.19629,11.8616 -0.56098,14.33339c-3.77087,3.38044 -15.18716,-5.98644 -19.26147,-7.38212c-7.05347,-2.41622 -10.01471,-12.42247 -6.6141,-22.34958c3.40061,-9.92712 11.87532,-16.01589 18.92878,-13.59967c7.05347,2.41622 10.90839,19.07087 7.50778,28.99799z" fill="#000000"/><path d="M181.35275,196.39398c5.88132,-0.65717 11.24004,2.04552 16.46443,2.09822c16.95969,0.17106 29.6524,0.88806 30.30881,6.76259c0.85861,7.68417 0.21502,18.06893 -24.75852,20.85941c-8.4345,0.94245 -35.7252,3.66582 -46.06335,-1.86797c-20.27186,-10.8511 -41.82806,-37.23393 -42.39669,-42.32287c-0.85861,-7.68417 41.47178,17.2611 66.44532,14.47062z" fill="#000000"/></g></g></g></svg>