<svg version="1.1" xmlns="http://www.w3.org/2000/svg" xmlns:xlink="http://www.w3.org/1999/xlink" width="258.13453" height="187.56841" viewBox="0,0,258.13453,187.56841"><g transform="translate(-110.93273,-80.04459)"><g data-paper-data="{&quot;isPaintingLayer&quot;:true}" fill-rule="nonzero" stroke="none" stroke-width="0" stroke-linecap="butt" stroke-linejoin="miter" stroke-miterlimit="10" stroke-dasharray="" stroke-dashoffset="0" style="mix-blend-mode: normal"><path d="M342.58287,182.2518c-10.31764,22.60992 -38.02898,32.11012 -61.89501,21.21928c-23.86603,-10.89084 -34.84918,-38.04858 -24.53154,-60.6585c10.31764,-22.60992 59.97024,-62.76799 59.97024,-62.76799c0,0 -9.22523,38.98972 5.4728,42.31832c19.43454,4.40125 47.4679,-28.66375 47.4679,-28.66375c0,0 -19.60647,73.48049 -26.48439,88.55264z" fill="#000000"/><path d="M324.93108,170.34952c-3.32457,7.28542 -8.46353,12.07621 -11.47819,10.70052c-3.01466,-1.37568 -2.76342,-8.39689 0.56115,-15.68231c3.32457,-7.28542 8.46353,-12.07621 11.47819,-10.70052c3.01466,1.37568 2.76342,8.39689 -0.56115,15.68231z" fill="#ffffff"/><path d="M342.2164,178.23737c-2.86601,6.28053 -7.02227,10.5355 -9.28326,9.50374c-2.261,-1.03176 -1.77053,-6.95955 1.09548,-13.24009c2.86601,-6.28053 7.02227,-10.5355 9.28326,-9.50374c2.261,1.03176 1.77053,6.95955 -1.09548,13.24009z" fill="#ffffff"/><path d="M320.38232,168.27378c-0.80248,1.75855 -1.86034,2.99826 -2.36278,2.76899c-0.50244,-0.22928 -0.25921,-1.84074 0.54327,-3.59929c0.80248,-1.75855 1.86034,-2.99826 2.36278,-2.76899c0.50244,0.22928 0.25921,1.84074 -0.54327,3.59929z" fill="#000000"/><path d="M339.27956,177.4468c-0.91712,2.00977 -2.06791,3.45314 -2.57035,3.22386c-0.50244,-0.22928 -0.16627,-2.04439 0.75085,-4.05417c0.91712,-2.00977 2.06791,-3.45314 2.57035,-3.22386c0.50244,0.22928 0.16627,2.04439 -0.75085,4.05417z" fill="#000000"/><path d="M232.69473,161.5821c27.54109,-9.91388 55.62979,-1.94303 62.73786,17.80341c7.10808,19.74644 -9.45615,43.79089 -36.99724,53.70478c-27.54109,9.91388 -55.62979,1.94303 -62.73786,-17.80341c-7.10808,-19.74644 9.45615,-43.79089 36.99724,-53.70478z" fill="#000000"/><path d="M283.90162,235.85959c3.39542,3.94682 21.86642,10.46393 23.99151,14.19141c2.28526,4.00841 -1.5116,9.70503 -1.02563,12.64204c0.43984,2.6582 -10.30124,0.1824 -11.60235,1.30173c-4.07553,3.50613 -15.77088,-3.40586 -26.12232,-15.43835c-10.35144,-12.0325 -15.43908,-24.62904 -11.36355,-28.13517c4.07553,-3.50613 15.77088,3.40586 26.12232,15.43835z" fill="#000000"/><path d="M290.26516,212.36493c5.59257,0.08494 23.71688,-9.70331 28.25119,-8.78832c4.87607,0.98395 6.93773,7.81919 9.68922,9.45737c2.49028,1.48266 -6.96846,8.07532 -6.94692,9.84676c0.06745,5.54878 -13.69946,9.83703 -30.74925,9.57809c-17.04979,-0.25894 -30.92604,-4.96703 -30.99349,-10.51581c-0.06745,-5.54878 13.69946,-9.83703 30.74925,-9.57809z" fill="#000000"/><path d="M252.454,248.29789c1.76627,4.06492 9.61953,7.27913 9.24983,10.96364c-0.50562,5.03896 -15.25221,5.81869 -19.20218,7.53502c-6.8382,2.97131 -15.7717,-2.42187 -19.95355,-12.046c-4.18185,-9.62412 -2.02845,-19.83475 4.80974,-22.80606c6.8382,-2.97131 20.91432,6.72926 25.09615,16.35339z" fill="#000000"/><path d="M215.49931,257.76099c-4.42162,-0.30412 -10.89128,5.18663 -13.99159,3.16169c-4.24001,-2.76934 1.85892,-16.21825 2.15443,-20.51483c0.51161,-7.43827 9.4129,-12.88447 19.88158,-12.16441c10.46868,0.72006 18.54047,7.33368 18.02886,14.77194c-0.51161,7.43827 -15.6046,15.46568 -26.07329,14.74563z" fill="#000000"/><path d="M175.64194,182.98612c5.91741,-0.0781 10.98572,3.13633 16.17985,3.70035c16.86144,1.83095 29.42294,3.78739 29.50095,9.69796c0.10204,7.73132 -1.55534,18.00315 -26.68211,18.33478c-8.48625,0.112 -35.91248,0.14996 -45.65906,-6.36956c-19.11189,-12.784 -37.98106,-41.15084 -38.04864,-46.271c-0.10204,-7.73132 39.58225,21.23911 64.70901,20.90747z" fill="#000000"/></g></g></svg>