<svg version="1.1" xmlns="http://www.w3.org/2000/svg" xmlns:xlink="http://www.w3.org/1999/xlink" width="258.13452" height="204.89385" viewBox="0,0,258.13452,204.89385"><g transform="translate(-110.93274,-77.84372)"><g data-paper-data="{&quot;isPaintingLayer&quot;:true}" fill-rule="nonzero" stroke="none" stroke-width="0" stroke-linecap="butt" stroke-linejoin="miter" stroke-miterlimit="10" stroke-dasharray="" stroke-dashoffset="0" style="mix-blend-mode: normal"><g><path d="M137.41712,180.05093c-6.87791,-15.07216 -26.48438,-88.55265 -26.48438,-88.55265c0,0 28.03336,33.06501 47.4679,28.66376c14.69803,-3.3286 5.4728,-42.31832 5.4728,-42.31832c0,0 49.65261,40.15806 59.97024,62.76799c10.31764,22.60993 -0.6655,49.76765 -24.53154,60.6585c-23.86603,10.89085 -51.57738,1.39065 -61.89501,-21.21928z" data-paper-data="{&quot;index&quot;:null}" fill="#000000"/><path d="M154.50778,152.46634c3.01466,-1.37569 8.15362,3.4151 11.47819,10.70052c3.32457,7.28541 3.57581,14.30663 0.56115,15.68231c-3.01466,1.37569 -8.15362,-3.4151 -11.47819,-10.70052c-3.32457,-7.28541 -3.57581,-14.30663 -0.56115,-15.68231z" data-paper-data="{&quot;index&quot;:null}" fill="#ffffff"/><path d="M137.78361,176.03649c-2.86601,-6.28053 -3.35647,-12.20831 -1.09548,-13.24008c2.26099,-1.03176 6.41725,3.22321 9.28326,9.50374c2.86601,6.28054 3.35647,12.20832 1.09548,13.24009c-2.26099,1.03177 -6.41725,-3.2232 -9.28326,-9.50374z" data-paper-data="{&quot;index&quot;:null}" fill="#ffffff"/><path d="M159.07442,162.47362c0.50244,-0.22928 1.5603,1.01044 2.36278,2.76899c0.80247,1.75855 1.0457,3.37001 0.54326,3.59929c-0.50243,0.22928 -1.56029,-1.01044 -2.36277,-2.76899c-0.80248,-1.75856 -1.04571,-3.37001 -0.54327,-3.59929z" data-paper-data="{&quot;index&quot;:null}" fill="#000000"/><path d="M139.9696,171.19177c0.50244,-0.22928 1.65323,1.21409 2.57035,3.22386c0.91712,2.00978 1.25329,3.82489 0.75085,4.05417c-0.50244,0.22928 -1.65323,-1.2141 -2.57035,-3.22387c-0.91712,-2.00977 -1.25329,-3.82488 -0.75085,-4.05416z" data-paper-data="{&quot;index&quot;:null}" fill="#000000"/><path d="M284.30252,213.08601c-7.10807,19.74644 -35.19677,27.71729 -62.73786,17.80341c-27.54109,-9.91389 -44.10532,-33.95834 -36.99724,-53.70478c7.10807,-19.74644 35.19677,-27.71729 62.73786,-17.80341c27.54109,9.9139 44.10532,33.95834 36.99724,53.70478z" data-paper-data="{&quot;index&quot;:null}" fill="#000000"/><path d="M204.5731,246.35051c1.50389,-16.14363 7.15573,-28.81769 12.62374,-28.30832c5.468,0.50938 8.68155,14.00931 7.17766,30.15296c-1.50389,16.14363 -7.15573,28.81769 -12.62374,28.30832c-1.74566,-0.16262 -9.22668,8.25246 -10.43265,5.77848c-1.33246,-2.73345 -7.86403,-5.23194 -8.33172,-9.92193c-0.43492,-4.36129 11.09339,-20.71417 11.58669,-26.0095z" data-paper-data="{&quot;index&quot;:null}" fill="#000000"/><path d="M178.00269,227.42358c12.52884,-11.66836 25.88936,-17.68728 29.84156,-13.44364c3.95218,4.24365 -3.00058,17.14286 -15.52942,28.81123c-12.52885,11.66837 -25.88938,17.68729 -29.84157,13.44364c-1.26174,-1.35477 -13.07147,0.02174 -12.28372,-2.77572c0.87038,-3.09088 -2.5225,-9.64973 0.40429,-13.67521c2.72166,-3.74334 23.2992,-8.53291 27.40884,-12.3603z" data-paper-data="{&quot;index&quot;:null}" fill="#000000"/><path d="M260.89093,250.38966c-4.74366,-9.35998 -3.23424,-26.38818 3.41628,-29.75868c6.65051,-3.37049 15.88732,1.48496 20.63097,10.84494c4.74365,9.35999 3.19784,19.68008 -3.45268,23.05058c-3.84156,1.9469 -13.84945,12.80564 -18.05244,9.98046c-3.07325,-2.06579 -0.53857,-10.16395 -2.54214,-14.1173z" data-paper-data="{&quot;index&quot;:null}" fill="#000000"/><path d="M233.40761,260.5024c-2.92984,-10.07611 1.70431,-26.53097 8.86364,-28.61269c7.15933,-2.08172 15.33821,4.39899 18.26805,14.47509c2.92984,10.07609 -0.49885,19.93197 -7.65818,22.01368c-4.13546,1.20246 -15.97976,10.02191 -19.58742,6.46781c-2.63794,-2.59877 1.35139,-10.0881 0.11393,-14.34391z" data-paper-data="{&quot;index&quot;:null}" fill="#000000"/><path d="M304.35804,180.78524c25.12677,0.33163 64.81107,-28.6388 64.70902,-20.90748c-0.06758,5.12016 -18.93675,33.487 -38.04864,46.271c-9.74659,6.51952 -37.17281,6.48158 -45.65906,6.36957c-25.12676,-0.33163 -26.78416,-10.60346 -26.68211,-18.33478c0.07802,-5.91058 12.63952,-7.86701 29.50096,-9.69796c5.19413,-0.56402 10.26244,-3.77844 16.17985,-3.70034z" data-paper-data="{&quot;index&quot;:null}" fill="#000000"/></g></g></g></svg>