<svg version="1.1" xmlns="http://www.w3.org/2000/svg" xmlns:xlink="http://www.w3.org/1999/xlink" width="79" height="131" viewBox="0,0,79,131"><defs><linearGradient x1="200.5" y1="180" x2="279.5" y2="180" gradientUnits="userSpaceOnUse" id="color-1"><stop offset="0" stop-color="#ffffff"/><stop offset="1" stop-color="#cdcdcd"/></linearGradient><linearGradient x1="221" y1="180" x2="259" y2="180" gradientUnits="userSpaceOnUse" id="color-2"><stop offset="0" stop-color="#ffffff"/><stop offset="1" stop-color="#cdcdcd"/></linearGradient></defs><g transform="translate(-200.5,-114.5)"><g data-paper-data="{&quot;isPaintingLayer&quot;:true}" fill-rule="nonzero" stroke-linecap="butt" stroke-linejoin="miter" stroke-miterlimit="10" stroke-dasharray="" stroke-dashoffset="0" style="mix-blend-mode: normal"><path d="M279.5,180c0,36.17465 -17.68475,65.5 -39.5,65.5c-21.81525,0 -39.5,-29.32535 -39.5,-65.5c0,-36.17465 17.68475,-65.5 39.5,-65.5c21.81525,0 39.5,29.32535 39.5,65.5z" fill="url(#color-1)" stroke="none" stroke-width="0"/><path d="M259,180c0,22.09139 -8.50659,40 -19,40c-10.49341,0 -19,-17.90861 -19,-40c0,-22.09139 8.50659,-40 19,-40c10.49341,0 19,17.90861 19,40z" fill="url(#color-2)" stroke="#000000" stroke-width="0.5"/></g></g></svg>