<svg version="1.1" xmlns="http://www.w3.org/2000/svg" xmlns:xlink="http://www.w3.org/1999/xlink" width="247.15337" height="249.4237" viewBox="0,0,247.15337,249.4237"><g transform="translate(-116.42332,-25.65648)"><g data-paper-data="{&quot;isPaintingLayer&quot;:true}" fill-rule="nonzero" stroke-linecap="butt" stroke-linejoin="miter" stroke-miterlimit="10" stroke-dasharray="" stroke-dashoffset="0" style="mix-blend-mode: normal"><path d="M287.22092,247.05778c-22.25687,11.05867 -49.76249,0.97836 -61.43553,-22.515c-11.67305,-23.49336 -3.09316,-51.50332 19.16371,-62.56198c22.25687,-11.05867 86.11642,-10.96416 86.11642,-10.96416c0,0 -31.72777,24.46736 -22.41035,36.31209c12.31999,15.66174 54.92151,7.64458 54.92151,7.64458c0,0 -61.51896,44.71258 -76.35576,52.08449z" fill="#000000" stroke="none" stroke-width="0"/><path d="M340.59932,25.65648z" fill="#000000" stroke="#000000" stroke-width="2"/><path d="M281.01103,226.6939c-7.17166,3.56335 -14.18075,4.04631 -15.65523,1.07874c-1.47448,-2.96757 3.14399,-8.26195 10.31564,-11.82529c7.17166,-3.56335 14.18074,-4.04631 15.65523,-1.07874c1.47448,2.96757 -3.14398,8.26195 -10.31563,11.82529z" fill="#ffffff" stroke="none" stroke-width="0"/><path d="M289.4654,243.7093c-6.18247,3.07185 -12.09082,3.75781 -13.19669,1.53212c-1.10587,-2.22569 3.00953,-6.52019 9.19199,-9.59204c6.18247,-3.07185 12.09082,-3.75781 13.19669,-1.53212c1.10587,2.22569 -3.00953,6.52019 -9.19199,9.59204z" fill="#ffffff" stroke="none" stroke-width="0"/><path d="M278.7862,222.21617c-1.73109,0.86012 -3.33363,1.15643 -3.57938,0.66184c-0.24575,-0.4946 0.95836,-1.59282 2.68944,-2.45293c1.73109,-0.86012 3.33363,-1.15643 3.57938,-0.66184c0.24575,0.4946 -0.95836,1.59282 -2.68944,2.45293z" fill="#000000" stroke="none" stroke-width="0"/><path d="M287.68273,241.24514c-1.97839,0.98299 -3.78141,1.37892 -4.02715,0.88432c-0.24575,-0.4946 1.15884,-1.69242 3.13722,-2.67541c1.97839,-0.98299 3.78141,-1.37892 4.02715,-0.88432c0.24575,0.4946 -1.15884,1.69242 -3.13722,2.67541z" fill="#000000" stroke="none" stroke-width="0"/><path d="M214.90413,161.77634c27.63404,9.65177 44.42597,33.53776 37.50583,53.35084c-6.92014,19.8131 -34.93184,28.05046 -62.56588,18.39868c-27.63404,-9.65178 -44.42596,-33.53776 -37.50582,-53.35085c6.92014,-19.8131 34.93183,-28.05046 62.56587,-18.39868z" fill="#000000" stroke="none" stroke-width="0"/><path d="M220.97617,239.45311c2.71891,4.57072 20.15132,14.39058 21.63091,18.5162c1.5911,4.43657 -3.23526,9.4972 -3.26516,12.53799c-0.02706,2.75212 -10.39631,-1.63625 -11.9031,-0.73995c-4.71976,2.80756 -15.26543,-6.21264 -23.55443,-20.14717c-8.28899,-13.93454 -11.18242,-27.50669 -6.46265,-30.31425c4.71976,-2.80756 15.26543,6.21264 23.55443,20.14718z" fill="#000000" stroke="none" stroke-width="0"/><path d="M225.21156,238.27267c1.80215,5.31886 17.64489,19.29681 18.26506,23.88325c0.66691,4.93211 -5.4313,9.09649 -6.13135,12.23035c-0.63359,2.83636 -10.37694,-3.97775 -12.13036,-3.38364c-5.49229,1.86093 -14.39855,-9.77563 -19.8927,-25.99097c-5.49415,-16.21534 -5.49566,-30.86903 -0.00336,-32.72996c5.49229,-1.86093 14.39856,9.77563 19.89271,25.99097z" fill="#000000" stroke="none" stroke-width="0"/><path d="M144.20328,219.50303c-4.1109,-1.65644 -11.96131,1.56473 -14.28353,-1.31963c-3.1759,-3.94467 6.7827,-14.84864 8.3923,-18.8433c2.78654,-6.91554 12.93563,-9.34245 22.66862,-5.42064c9.733,3.92181 15.36419,12.70721 12.57765,19.62276c-2.78654,6.91554 -19.62206,9.88262 -29.35505,5.9608z" fill="#000000" stroke="none" stroke-width="0"/><path d="M158.64652,245.26129c-4.39713,-0.55542 -11.16895,4.55802 -14.14893,2.35981c-4.07543,-3.00629 2.77944,-16.08608 3.31914,-20.35887c0.93435,-7.39707 10.13131,-12.32755 20.54201,-11.01254c10.41068,1.31501 18.09278,8.37754 17.15843,15.77461c-0.93435,7.39707 -16.45998,14.552 -26.87066,13.23698z" fill="#000000" stroke="none" stroke-width="0"/><path d="M120.03161,85.45211c4.79148,-6.06839 17.35879,41.43098 37.08106,57.00328c4.64464,3.66731 6.55559,9.35666 10.23399,13.06696c11.94103,12.04459 20.46367,21.4777 16.8006,26.11697c-4.79147,6.06839 -12.54984,13.00131 -32.2721,-2.57099c-6.66095,-5.25935 -27.98394,-22.50837 -31.44581,-33.71174c-6.78831,-21.96847 -3.57096,-55.88561 -0.39773,-59.90448z" fill="#000000" stroke="none" stroke-width="0"/></g></g></svg>