<svg version="1.1" xmlns="http://www.w3.org/2000/svg" xmlns:xlink="http://www.w3.org/1999/xlink" width="211.75779" height="232.94636" viewBox="0,0,211.75779,232.94636"><g transform="translate(-134.12111,-63.52682)"><g data-paper-data="{&quot;isPaintingLayer&quot;:true}" fill-rule="nonzero" stroke="none" stroke-width="0" stroke-linecap="butt" stroke-linejoin="miter" stroke-miterlimit="10" stroke-dasharray="" stroke-dashoffset="0" style="mix-blend-mode: normal"><path d="M182.65774,63.52682c0,0 2.05608,43.30054 20.14314,51.66301c13.67895,6.3244 30.14241,-30.20309 30.14241,-30.20309c0,0 14.8657,62.10524 9.2561,86.3167c-5.6096,24.21146 -30.87474,39.03862 -56.43128,33.11739c-25.55654,-5.92123 -41.72675,-30.34861 -36.11715,-54.56007c3.73945,-16.13977 33.00678,-86.33392 33.00678,-86.33392z" data-paper-data="{&quot;index&quot;:null}" fill="#000000"/><path d="M180.01702,138.41949c3.22819,0.74795 4.37987,7.67862 2.57233,15.48009c-1.80754,7.80147 -5.8898,13.51949 -9.11799,12.77154c-3.22819,-0.74794 -4.37987,-7.67862 -2.57233,-15.48009c1.80754,-7.80147 5.8898,-13.51948 9.11799,-12.77153z" data-paper-data="{&quot;index&quot;:null}" fill="#ffffff"/><path d="M159.59462,135.74077c2.42114,0.56096 3.12069,6.46772 1.56247,13.19313c-1.55822,6.7254 -4.78413,11.72268 -7.20528,11.16172c-2.42115,-0.56096 -3.12069,-6.46773 -1.56247,-13.19313c1.55822,-6.7254 4.78413,-11.72268 7.20528,-11.16172z" data-paper-data="{&quot;index&quot;:null}" fill="#ffffff"/><path d="M177.53419,149.13563c0.53803,0.12466 0.6205,1.75227 0.1842,3.63539c-0.4363,1.88312 -1.22616,3.30863 -1.76418,3.18397c-0.53803,-0.12466 -0.6205,-1.75227 -0.1842,-3.63539c0.4363,-1.88312 1.22616,-3.30863 1.76418,-3.18397z" data-paper-data="{&quot;index&quot;:null}" fill="#000000"/><path d="M157.07612,144.39566c0.53803,0.12466 0.56997,1.97035 0.07134,4.12248c-0.49863,2.15213 -1.33902,3.79573 -1.87705,3.67106c-0.53803,-0.12466 -0.56997,-1.97036 -0.07134,-4.12249c0.49863,-2.15213 1.33902,-3.79572 1.87705,-3.67106z" data-paper-data="{&quot;index&quot;:null}" fill="#000000"/><path d="M245.92404,265.61104c-17.67462,11.31611 -44.79739,0.50569 -60.58038,-24.14576c-15.78299,-24.65144 -14.24954,-53.80892 3.42508,-65.12503c17.67462,-11.31611 44.79739,-0.50568 60.58038,24.14576c15.783,24.65144 14.24954,53.80892 -3.42508,65.12503z" data-paper-data="{&quot;index&quot;:null}" fill="#000000"/><path d="M197.42476,230.80345c-1.63949,5.24124 -15.51284,5.5662 -30.98698,0.7258c-15.47414,-4.8404 -26.68935,-13.01318 -25.04986,-18.25442c0.52341,-1.67327 -6.14481,-10.74597 -3.47362,-11.40899c2.95137,-0.73256 6.75815,-6.59876 11.44246,-6.07722c4.356,0.48499 17.94239,15.17269 23.01813,16.76041c15.47414,4.8404 26.68936,13.01318 25.04987,18.25442z" data-paper-data="{&quot;index&quot;:null}" fill="#000000"/><path d="M202.43145,221.49554c-0.53981,5.77381 -14.79632,9.16244 -31.84281,7.56872c-17.04649,-1.59372 -30.4278,-7.56628 -29.88799,-13.34009c0.17233,-1.84329 -8.711,-9.74589 -6.09817,-11.01848c2.88688,-1.40607 5.52747,-8.30226 10.48008,-8.79447c4.60549,-0.45771 21.86942,11.72146 27.4609,12.24423c17.04649,1.59372 30.4278,7.56629 29.88799,13.3401z" data-paper-data="{&quot;index&quot;:null}" fill="#000000"/><path d="M208.55284,252.68607c6.08327,-4.31085 15.93311,-0.86489 22.00023,7.69676c6.06712,8.56164 6.05401,18.99686 -0.02926,23.30771c-3.5139,2.49008 -11.81815,14.70112 -16.39055,12.52398c-3.34336,-1.59194 -2.02574,-9.97458 -4.58829,-13.59074c-6.06712,-8.56164 -7.07539,-25.62685 -0.99212,-29.93769z" data-paper-data="{&quot;index&quot;:null}" fill="#000000"/><path d="M187.80549,245.32742c6.98023,-2.62029 15.62839,3.21949 19.31622,13.04353c3.68783,9.82404 1.0188,19.91215 -5.96143,22.53244c-4.03201,1.51356 -15.17112,11.20844 -19.03868,7.93907c-2.82798,-2.39057 0.5801,-10.16167 -0.97752,-14.31102c-3.68783,-9.82404 -0.31882,-26.58373 6.66142,-29.20403z" data-paper-data="{&quot;index&quot;:null}" fill="#000000"/><path d="M345.55127,275.12735c-3.17573,4.01689 -35.42841,14.99361 -58.37136,13.47181c-11.70033,-0.77608 -33.41442,-17.53009 -40.07209,-22.7936c-19.71254,-15.58461 -14.76259,-24.73642 -9.96732,-30.80182c3.66597,-4.63698 14.81486,1.47214 29.29523,10.30274c4.46064,2.72025 10.43774,3.26313 15.08008,6.93334c19.71254,15.58461 68.83073,16.82214 64.03547,22.88753z" data-paper-data="{&quot;index&quot;:null}" fill="#000000"/></g></g></svg>