<svg version="1.1" xmlns="http://www.w3.org/2000/svg" xmlns:xlink="http://www.w3.org/1999/xlink" width="247.15337" height="249.4237" viewBox="0,0,247.15337,249.4237"><g transform="translate(-116.42332,-25.65648)"><g data-paper-data="{&quot;isPaintingLayer&quot;:true}" fill-rule="nonzero" stroke-linecap="butt" stroke-linejoin="miter" stroke-miterlimit="10" stroke-dasharray="" stroke-dashoffset="0" style="mix-blend-mode: normal"><path d="M192.77908,247.0578c-14.8368,-7.37191 -76.35576,-52.08449 -76.35576,-52.08449c0,0 42.60152,8.01716 54.92151,-7.64458c9.31742,-11.84473 -22.41035,-36.31209 -22.41035,-36.31209c0,0 63.85955,-0.09451 86.11642,10.96416c22.25687,11.05866 30.83676,39.06862 19.16371,62.56198c-11.67304,23.49336 -39.17866,33.57367 -61.43553,22.515z" data-paper-data="{&quot;index&quot;:null}" fill="#000000" stroke="none" stroke-width="0"/><path d="M139.40069,25.65649z" data-paper-data="{&quot;index&quot;:null}" fill="#000000" stroke="#000000" stroke-width="2"/><path d="M198.98896,226.6939c-7.17165,-3.56334 -11.79011,-8.85772 -10.31563,-11.82529c1.47449,-2.96757 8.48357,-2.48461 15.65523,1.07874c7.17165,3.56334 11.79012,8.85772 10.31564,11.82529c-1.47448,2.96757 -8.48357,2.48461 -15.65523,-1.07874z" data-paper-data="{&quot;index&quot;:null}" fill="#ffffff" stroke="none" stroke-width="0"/><path d="M181.34261,234.11726c1.10587,-2.22569 7.01422,-1.53973 13.19669,1.53212c6.18246,3.07185 10.29786,7.36635 9.19199,9.59204c-1.10587,2.22569 -7.01422,1.53973 -13.19669,-1.53212c-6.18246,-3.07185 -10.29786,-7.36635 -9.19199,-9.59204z" data-paper-data="{&quot;index&quot;:null}" fill="#ffffff" stroke="none" stroke-width="0"/><path d="M198.52436,219.76324c0.24575,-0.49459 1.84829,-0.19828 3.57938,0.66184c1.73108,0.86011 2.93519,1.95833 2.68944,2.45293c-0.24575,0.49459 -1.84829,0.19828 -3.57938,-0.66184c-1.73108,-0.86011 -2.93519,-1.95833 -2.68944,-2.45293z" data-paper-data="{&quot;index&quot;:null}" fill="#000000" stroke="none" stroke-width="0"/><path d="M189.18005,238.56973c0.24574,-0.4946 2.04876,-0.09867 4.02715,0.88432c1.97838,0.98299 3.38297,2.18081 3.13722,2.67541c-0.24574,0.4946 -2.04876,0.09867 -4.02715,-0.88432c-1.97838,-0.98299 -3.38297,-2.18081 -3.13722,-2.67541z" data-paper-data="{&quot;index&quot;:null}" fill="#000000" stroke="none" stroke-width="0"/><path d="M265.09587,161.77633c27.63404,-9.65178 55.64573,-1.41442 62.56587,18.39868c6.92014,19.81309 -9.87178,43.69907 -37.50582,53.35085c-27.63404,9.65178 -55.64574,1.41442 -62.56588,-18.39868c-6.92014,-19.81308 9.87179,-43.69907 37.50583,-53.35084z" data-paper-data="{&quot;index&quot;:null}" fill="#000000" stroke="none" stroke-width="0"/><path d="M282.57826,219.30593c4.71977,2.80756 1.82634,16.37971 -6.46265,30.31425c-8.289,13.93453 -18.83467,22.95473 -23.55443,20.14717c-1.50679,-0.8963 -11.87604,3.49207 -11.9031,0.73995c-0.0299,-3.04079 -4.85626,-8.10142 -3.26516,-12.53799c1.47959,-4.12562 18.912,-13.94548 21.63091,-18.5162c8.289,-13.93454 18.83467,-22.95474 23.55443,-20.14718z" data-paper-data="{&quot;index&quot;:null}" fill="#000000" stroke="none" stroke-width="0"/><path d="M274.68115,212.2817c5.4923,1.86093 5.49079,16.51462 -0.00336,32.72996c-5.49415,16.21534 -14.40041,27.8519 -19.8927,25.99097c-1.75342,-0.59411 -11.49677,6.22 -12.13036,3.38364c-0.70005,-3.13386 -6.79826,-7.29824 -6.13135,-12.23035c0.62017,-4.58644 16.46291,-18.56439 18.26506,-23.88325c5.49415,-16.21534 14.40042,-27.8519 19.89271,-25.99097z" data-paper-data="{&quot;index&quot;:null}" fill="#000000" stroke="none" stroke-width="0"/><path d="M335.79673,219.50302c-9.73299,3.92182 -26.56851,0.95474 -29.35505,-5.9608c-2.78654,-6.91555 2.84465,-15.70095 12.57765,-19.62276c9.73299,-3.92181 19.88208,-1.4949 22.66862,5.42064c1.6096,3.99466 11.5682,14.89863 8.3923,18.8433c-2.32222,2.88436 -10.17263,-0.33681 -14.28353,1.31963z" data-paper-data="{&quot;index&quot;:null}" fill="#000000" stroke="none" stroke-width="0"/><path d="M321.35349,245.26128c-10.41068,1.31502 -25.93631,-5.83991 -26.87066,-13.23698c-0.93435,-7.39707 6.74775,-14.4596 17.15843,-15.77461c10.4107,-1.31501 19.60766,3.61547 20.54201,11.01254c0.5397,4.27279 7.39457,17.35258 3.31914,20.35887c-2.97998,2.19821 -9.7518,-2.91523 -14.14893,-2.35981z" data-paper-data="{&quot;index&quot;:null}" fill="#000000" stroke="none" stroke-width="0"/><path d="M359.96838,85.45211c3.17323,4.01887 6.39058,37.93601 -0.39773,59.90448c-3.46187,11.20337 -24.78486,28.45239 -31.44581,33.71174c-19.72226,15.5723 -27.48063,8.63938 -32.2721,2.57099c-3.66307,-4.63927 4.85957,-14.07238 16.8006,-26.11697c3.6784,-3.7103 5.58935,-9.39965 10.23399,-13.06696c19.72227,-15.5723 32.28958,-63.07167 37.08106,-57.00328z" data-paper-data="{&quot;index&quot;:null}" fill="#000000" stroke="none" stroke-width="0"/></g></g></svg>