<svg version="1.1" xmlns="http://www.w3.org/2000/svg" xmlns:xlink="http://www.w3.org/1999/xlink" width="300.3789" height="232.94635" viewBox="0,0,300.3789,232.94635"><g transform="translate(-45.5,-63.52683)"><g data-paper-data="{&quot;isPaintingLayer&quot;:true}" fill-rule="nonzero" stroke-linecap="butt" stroke-linejoin="miter" stroke-miterlimit="10" stroke-dasharray="" stroke-dashoffset="0" style="mix-blend-mode: normal"><path d="M330.34904,149.86076c5.60959,24.21146 -10.56061,48.63884 -36.11715,54.56007c-25.55654,5.92124 -50.82169,-8.90592 -56.43128,-33.11738c-5.60959,-24.21146 9.2561,-86.31671 9.2561,-86.31671c0,0 16.46345,36.5275 30.14241,30.20309c18.08705,-8.36246 20.14314,-51.663 20.14314,-51.663c0,0 29.26732,70.19416 33.00678,86.33393z" fill="#000000" stroke="none" stroke-width="0"/><path d="M45.5,64.32078v0v0z" fill="#000000" stroke="#000000" stroke-width="2"/><path d="M309.10097,151.19104c1.80753,7.80147 0.65586,14.73215 -2.57233,15.48009c-3.22819,0.74794 -7.31046,-4.97007 -9.11799,-12.77154c-1.80753,-7.80147 -0.65586,-14.73214 2.57233,-15.48009c3.22819,-0.74794 7.31046,4.97006 9.11799,12.77153z" fill="#ffffff" stroke="none" stroke-width="0"/><path d="M327.61066,146.90251c1.55822,6.72541 0.85868,12.63217 -1.56247,13.19313c-2.42115,0.56096 -5.64706,-4.43632 -7.20528,-11.16172c-1.55822,-6.72541 -0.85868,-12.63217 1.56247,-13.19313c2.42115,-0.56096 5.64706,4.43632 7.20528,11.16172z" fill="#ffffff" stroke="none" stroke-width="0"/><path d="M304.23001,152.31961c0.4363,1.88311 0.35383,3.51073 -0.1842,3.63539c-0.53803,0.12466 -1.32789,-1.30085 -1.76419,-3.18396c-0.4363,-1.88311 -0.35383,-3.51073 0.1842,-3.63539c0.53803,-0.12466 1.32789,1.30085 1.76419,3.18396z" fill="#000000" stroke="none" stroke-width="0"/><path d="M324.80093,148.06674c0.49863,2.15213 0.46669,3.99783 -0.07134,4.12249c-0.53803,0.12466 -1.37841,-1.51893 -1.87704,-3.67106c-0.49863,-2.15213 -0.46669,-3.99783 0.07134,-4.12249c0.53803,-0.12466 1.37841,1.51893 1.87704,3.67106z" fill="#000000" stroke="none" stroke-width="0"/><path d="M230.65088,200.48603c15.783,-24.65145 42.90576,-35.46187 60.58038,-24.14576c17.67463,11.31611 19.20809,40.47358 3.42509,65.12503c-15.783,24.65144 -42.90576,35.46186 -60.58038,24.14575c-17.67463,-11.31611 -19.20809,-40.47357 -3.42509,-65.12502z" fill="#000000" stroke="none" stroke-width="0"/><path d="M307.62512,212.54904c5.07574,-1.58772 18.66213,-16.27541 23.01813,-16.76041c4.68431,-0.52155 8.49108,5.34465 11.44246,6.07722c2.67119,0.66302 -3.99702,9.73572 -3.47362,11.40899c1.63949,5.24124 -9.57572,13.41402 -25.04986,18.25442c-15.47415,4.8404 -29.34749,4.51545 -30.98698,-0.7258c-1.63949,-5.24124 9.57572,-13.41402 25.04987,-18.25442z" fill="#000000" stroke="none" stroke-width="0"/><path d="M307.45655,208.15546c5.59149,-0.52276 22.85541,-12.70194 27.4609,-12.24423c4.9526,0.49221 7.5932,7.38841 10.48008,8.79447c2.61283,1.27258 -6.27051,9.17519 -6.09817,11.01848c0.53981,5.77381 -12.8415,11.74637 -29.88799,13.34009c-17.04649,1.59372 -31.303,-1.79491 -31.84281,-7.56872c-0.53981,-5.77381 12.8415,-11.74638 29.88799,-13.3401z" fill="#000000" stroke="none" stroke-width="0"/><path d="M270.45505,282.62378c-2.56255,3.61616 -1.24493,11.99881 -4.58829,13.59074c-4.5724,2.17715 -12.87666,-10.03389 -16.39056,-12.52398c-6.08327,-4.31084 -6.09637,-14.74606 -0.02926,-23.3077c6.06712,-8.56165 15.91695,-12.0076 22.00023,-7.69676c6.08327,4.31084 5.075,21.37605 -0.99212,29.9377z" fill="#000000" stroke="none" stroke-width="0"/><path d="M298.85593,274.53147c-1.55761,4.14935 1.85046,11.92044 -0.97752,14.31102c-3.86757,3.26937 -15.00667,-6.42551 -19.03868,-7.93907c-6.98023,-2.62029 -9.64926,-12.70841 -5.96144,-22.53245c3.68782,-9.82403 12.33599,-15.66382 19.31622,-13.04353c6.98023,2.62029 10.34924,19.38 6.66142,29.20403z" fill="#000000" stroke="none" stroke-width="0"/><path d="M134.44872,275.12736c-4.79527,-6.0654 44.32292,-7.30291 64.03546,-22.88753c4.64235,-3.67021 10.61944,-4.2131 15.08008,-6.93334c14.48037,-8.8306 25.62926,-14.93971 29.29523,-10.30273c4.79527,6.06539 9.74522,15.21719 -9.96732,30.80181c-6.65766,5.26351 -28.37176,22.01752 -40.07209,22.7936c-22.94294,1.5218 -55.19563,-9.45492 -58.37135,-13.47181z" fill="#000000" stroke="none" stroke-width="0"/></g></g></svg>