<svg version="1.1" xmlns="http://www.w3.org/2000/svg" xmlns:xlink="http://www.w3.org/1999/xlink" width="131.8427" height="76.64057" viewBox="0,0,131.8427,76.64057"><g transform="translate(-131.91488,-149.04913)"><g data-paper-data="{&quot;isPaintingLayer&quot;:true}" fill-rule="nonzero" stroke-linecap="butt" stroke-linejoin="miter" stroke-miterlimit="10" stroke-dasharray="" stroke-dashoffset="0" style="mix-blend-mode: normal"><path d="" fill="#000000" stroke="none" stroke-width="0"/><path d="" fill="#ffffff" stroke="none" stroke-width="0"/><g stroke="none" stroke-width="0"><path d="" fill="#ffffff"/><path d="" fill="#000000"/></g><g><g stroke-width="0"><path d="M216.24243,188.88c0,-7.06678 4.77048,-34.97828 9.66799,-39.3298c4.19502,-3.72735 12.752,14.56325 18.80512,14.56325c4.73221,0 9.14125,-14.79038 12.8446,-12.40553c6.56405,4.22707 6.19363,28.7844 6.19363,37.17208c0,13.11989 -5.24442,22.07087 -18.36431,22.07087c-13.11989,0 -29.14703,-8.95098 -29.14703,-22.07087z" fill="#212121" stroke="#000000"/><g stroke="none"><path d="M253.75906,179.72768c0,-2.79146 1.05604,-5.05439 2.35872,-5.05439c1.30268,0 2.35872,2.26293 2.35872,5.05439c0,2.79146 -1.05604,5.05441 -2.35872,5.05441c-1.30268,0 -2.35872,-2.26294 -2.35872,-5.05441z" fill="#ffffff"/><path d="M256.11777,176.18961c0.26053,0 0.47174,1.58405 0.47174,3.53808c0,1.95403 -0.2112,3.53808 -0.47174,3.53808c-0.26053,0 -0.47174,-1.58405 -0.47174,-3.53808c0,-1.95402 0.2112,-3.53808 0.47174,-3.53808z" fill="#000000"/></g><g stroke="none"><path d="M238.54147,180.01025c0,-2.79146 1.05604,-5.05439 2.35872,-5.05439c1.30268,0 2.35872,2.26293 2.35872,5.05439c0,2.79146 -1.05604,5.05441 -2.35872,5.05441c-1.30268,0 -2.35872,-2.26294 -2.35872,-5.05441z" fill="#ffffff"/><path d="M240.90018,176.47217c0.26053,0 0.47174,1.58405 0.47174,3.53808c0,1.95403 -0.2112,3.53808 -0.47174,3.53808c-0.26053,0 -0.47174,-1.58405 -0.47174,-3.53808c0,-1.95402 0.2112,-3.53808 0.47174,-3.53808z" fill="#000000"/></g></g><path d="M254.23131,208.28845c0,1.2878 -5.3686,12.98302 -6.59242,14.17433c-6.55768,6.38349 -29.55776,1.32582 -56.92452,1.32582c-32.47406,0 -58.79949,-6.63793 -58.79949,-14.82623c0,-8.1883 26.51142,-18.29685 58.79949,-14.82623c18.80891,2.02176 20.38798,0.06772 27.27071,-0.00873c0.84833,-0.00942 7.04574,9.45479 7.79933,9.53259c7.98144,0.824 4.79873,2.59167 9.92577,4.80615c8.64179,3.73259 13.80368,-3.39598 13.80368,0.49622z" fill="#212121" stroke="none" stroke-width="NaN"/></g></g></g></svg>