<svg version="1.1" xmlns="http://www.w3.org/2000/svg" xmlns:xlink="http://www.w3.org/1999/xlink" width="323.56726" height="215.63463" viewBox="0,0,323.56726,215.63463"><g transform="translate(-45.5,-64.32078)"><g data-paper-data="{&quot;isPaintingLayer&quot;:true}" fill-rule="nonzero" stroke-linecap="butt" stroke-linejoin="miter" stroke-miterlimit="10" stroke-dasharray="" stroke-dashoffset="0" style="mix-blend-mode: normal"><path d="M342.58287,182.2518c-10.31764,22.60992 -38.02898,32.11012 -61.89501,21.21928c-23.86603,-10.89084 -34.84918,-38.04858 -24.53154,-60.6585c10.31764,-22.60992 59.97024,-62.76799 59.97024,-62.76799c0,0 -9.22523,38.98972 5.4728,42.31832c19.43454,4.40125 47.4679,-28.66375 47.4679,-28.66375c0,0 -19.60647,73.48049 -26.48439,88.55264z" fill="#000000" stroke="none" stroke-width="0"/><path d="M45.5,64.32078z" fill="#000000" stroke="#000000" stroke-width="2"/><path d="M324.93108,170.34952c-3.32457,7.28542 -8.46353,12.07621 -11.47819,10.70052c-3.01466,-1.37568 -2.76342,-8.39689 0.56115,-15.68231c3.32457,-7.28542 8.46353,-12.07621 11.47819,-10.70052c3.01466,1.37568 2.76342,8.39689 -0.56115,15.68231z" fill="#ffffff" stroke="none" stroke-width="0"/><path d="M342.2164,178.23737c-2.86601,6.28053 -7.02227,10.5355 -9.28326,9.50374c-2.261,-1.03176 -1.77053,-6.95955 1.09548,-13.24009c2.86601,-6.28053 7.02227,-10.5355 9.28326,-9.50374c2.261,1.03176 1.77053,6.95955 -1.09548,13.24009z" fill="#ffffff" stroke="none" stroke-width="0"/><path d="M320.38232,168.27378c-0.80248,1.75855 -1.86034,2.99826 -2.36278,2.76899c-0.50244,-0.22928 -0.25921,-1.84074 0.54327,-3.59929c0.80248,-1.75855 1.86034,-2.99826 2.36278,-2.76899c0.50244,0.22928 0.25921,1.84074 -0.54327,3.59929z" fill="#000000" stroke="none" stroke-width="0"/><path d="M339.27956,177.4468c-0.91712,2.00977 -2.06791,3.45314 -2.57035,3.22386c-0.50244,-0.22928 -0.16627,-2.04439 0.75085,-4.05417c0.91712,-2.00977 2.06791,-3.45314 2.57035,-3.22386c0.50244,0.22928 0.16627,2.04439 -0.75085,4.05417z" fill="#000000" stroke="none" stroke-width="0"/><path d="M232.69473,161.5821c27.54109,-9.91388 55.62979,-1.94303 62.73786,17.80341c7.10808,19.74644 -9.45615,43.79089 -36.99724,53.70478c-27.54109,9.91388 -55.62979,1.94303 -62.73786,-17.80341c-7.10808,-19.74644 9.45615,-43.79089 36.99724,-53.70478z" fill="#000000" stroke="none" stroke-width="0"/><path d="M292.1513,239.13805c3.46839,4.03165 22.33637,10.68882 24.50714,14.49641c2.33438,4.09456 -1.54409,9.91361 -1.04767,12.91374c0.44929,2.71533 -10.52263,0.18632 -11.85171,1.32971c-4.16312,3.58148 -16.10983,-3.47906 -26.68374,-15.77015c-10.57391,-12.2911 -15.7709,-25.15837 -11.60778,-28.73985c4.16312,-3.58148 16.10983,3.47906 26.68374,15.77015z" fill="#000000" stroke="none" stroke-width="0"/><path d="M273.66456,242.46579c-1.18563,5.48929 5.22821,25.61981 3.4046,29.87357c-1.96105,4.57437 -9.33233,5.01526 -11.54261,7.34459c-2.00045,2.1082 -6.86049,-8.74283 -8.67008,-9.13368c-5.66828,-1.22429 -7.33314,-15.78311 -3.71857,-32.51803c3.61457,-16.73492 11.13981,-29.30877 16.80809,-28.08448c5.66828,1.22429 7.33314,15.78311 3.71857,32.51803z" fill="#000000" stroke="none" stroke-width="0"/><path d="M228.10909,256.59052c-2.00357,3.95335 0.53111,12.05152 -2.54213,14.11731c-4.20299,2.82518 -14.21088,-8.03356 -18.05244,-9.98047c-6.65052,-3.37049 -8.19633,-13.69059 -3.45268,-23.05058c4.74365,-9.35999 13.98046,-14.21544 20.63097,-10.84495c6.65052,3.37049 8.15994,20.3987 3.41628,29.75868z" fill="#000000" stroke="none" stroke-width="0"/><path d="M243.16109,262.88386c-3.33939,2.91405 -4.02515,11.37186 -7.64867,12.13502c-4.95556,1.04369 -10.1633,-12.77476 -12.99495,-16.01971c-4.90216,-5.61769 -2.46676,-15.76475 5.43962,-22.66408c7.90639,-6.89933 18.28975,-7.93831 23.19191,-2.32063c4.90216,5.61769 -0.08152,21.97008 -7.98791,28.86942z" fill="#000000" stroke="none" stroke-width="0"/><path d="M175.64194,182.98612c5.91741,-0.0781 10.98572,3.13633 16.17985,3.70035c16.86144,1.83095 29.42294,3.78739 29.50095,9.69796c0.10204,7.73132 -1.55534,18.00315 -26.68211,18.33478c-8.48625,0.112 -35.91248,0.14996 -45.65906,-6.36956c-19.11189,-12.784 -37.98106,-41.15084 -38.04864,-46.271c-0.10204,-7.73132 39.58225,21.23911 64.70901,20.90747z" fill="#000000" stroke="none" stroke-width="0"/></g></g></svg>