<svg version="1.1" xmlns="http://www.w3.org/2000/svg" xmlns:xlink="http://www.w3.org/1999/xlink" width="244.47663" height="240.78402" viewBox="0,0,244.47663,240.78402"><g transform="translate(-117.76168,-36.20499)"><g data-paper-data="{&quot;isPaintingLayer&quot;:true}" fill-rule="nonzero" stroke-linecap="butt" stroke-linejoin="miter" stroke-miterlimit="10" stroke-dasharray="" stroke-dashoffset="0" style="mix-blend-mode: normal"><path d="M117.76169,83.24455c0,0 19.05358,38.93746 38.9738,39.44433c15.06536,0.38333 15.69895,-39.67789 15.69895,-39.67789c0,0 38.26849,51.12313 42.71687,75.57459c4.44839,24.45147 -12.86854,48.07977 -38.67843,52.77528c-25.80988,4.69551 -50.33905,-11.31985 -54.78744,-35.77132c-2.96537,-16.29977 -3.92376,-92.34501 -3.92376,-92.34501z" data-paper-data="{&quot;index&quot;:null}" fill="#000000" stroke="none" stroke-width="0"/><path d="M258.13759,36.20499z" data-paper-data="{&quot;index&quot;:null}" fill="#000000" stroke="#000000" stroke-width="2"/><path d="M145.02762,153.04753c3.26019,-0.59313 7.06509,5.3131 8.49844,13.1919c1.43338,7.87881 -0.04756,14.74666 -3.30777,15.33977c-3.26019,0.59313 -7.06509,-5.3131 -8.49844,-13.1919c-1.43336,-7.87881 0.04756,-14.74666 3.30777,-15.33977z" data-paper-data="{&quot;index&quot;:null}" fill="#ffffff" stroke="none" stroke-width="0"/><path d="M125.21666,158.6845c2.44514,-0.44484 5.42903,4.70061 6.6647,11.49269c1.23567,6.79207 0.25518,12.65875 -2.18996,13.10359c-2.44514,0.44484 -5.42904,-4.70061 -6.6647,-11.49269c-1.23567,-6.79207 -0.25519,-12.65875 2.18995,-13.1036z" data-paper-data="{&quot;index&quot;:null}" fill="#ffffff" stroke="none" stroke-width="0"/><path d="M146.9965,163.86988c0.54336,-0.09885 1.26433,1.36271 1.61032,3.26449c0.34599,1.90178 0.18597,3.5236 -0.35739,3.62246c-0.54336,0.09885 -1.26433,-1.36271 -1.61032,-3.26449c-0.34599,-1.90178 -0.18597,-3.52361 0.3574,-3.62247z" data-paper-data="{&quot;index&quot;:null}" fill="#000000" stroke="none" stroke-width="0"/><path d="M126.33563,167.62865c0.54336,-0.09885 1.3044,1.58294 1.69981,3.75641c0.39541,2.17347 0.27548,4.01553 -0.2679,4.1144c-0.54336,0.09885 -1.3044,-1.58295 -1.69981,-3.75641c-0.39541,-2.17347 -0.27547,-4.01554 0.26789,-4.1144z" data-paper-data="{&quot;index&quot;:null}" fill="#000000" stroke="none" stroke-width="0"/><path d="M286.02498,200.59932c-4.18158,20.56603 -30.82452,32.51016 -59.5087,26.67797c-28.68419,-5.83219 -48.54748,-27.23216 -44.36591,-47.79818c4.18158,-20.56603 30.82452,-32.51015 59.50871,-26.67796c28.6842,5.83219 48.54747,27.23216 44.36591,47.79817z" data-paper-data="{&quot;index&quot;:null}" fill="#000000" stroke="none" stroke-width="0"/><path d="M206.23589,205.01549c5.08967,2.06248 4.2794,15.91595 -1.80981,30.94259c-6.08919,15.02666 -15.15146,25.53621 -20.24114,23.47372c-1.62488,-0.65845 -11.21233,5.24577 -11.65477,2.52931c-0.48885,-3.00139 -6.02419,-7.27498 -5.12146,-11.90097c0.83947,-4.30178 16.5887,-16.64199 18.58604,-21.57093c6.08919,-15.02665 15.15147,-25.5362 20.24115,-23.47373z" data-paper-data="{&quot;index&quot;:null}" fill="#000000" stroke="none" stroke-width="0"/><path d="M215.91844,198.97158c6.45265,-0.40247 12.64683,14.71489 13.8351,33.76555c1.18827,19.05067 -3.07935,34.82057 -9.532,35.22305c-2.06002,0.12848 -9.23017,11.27748 -11.08301,8.6194c-2.0472,-2.93689 -10.09883,-4.65446 -11.4962,-10.0244c-1.29942,-4.99357 9.13386,-26.11166 8.7441,-32.36055c-1.18827,-19.05067 3.07935,-34.82057 9.532,-35.22305z" data-paper-data="{&quot;index&quot;:null}" fill="#000000" stroke="none" stroke-width="0"/><path d="M234.06629,223.75026c6.2648,-4.0425 15.95563,-0.17189 21.64509,8.64524c5.68945,8.81714 5.22303,19.24193 -1.04177,23.28443c-3.61876,2.33508 -12.44564,14.17383 -16.91915,11.8001c-3.27105,-1.73567 -1.59052,-10.05317 -3.99354,-13.77725c-5.68945,-8.81714 -5.95541,-25.91004 0.30938,-29.95253z" data-paper-data="{&quot;index&quot;:null}" fill="#000000" stroke="none" stroke-width="0"/><path d="M250.15061,216.37966c6.2648,-4.0425 15.95563,-0.17189 21.64509,8.64524c5.68945,8.81714 5.22302,19.24193 -1.04178,23.28443c-3.61876,2.33508 -12.44564,14.17383 -16.91914,11.8001c-3.27105,-1.73567 -1.59052,-10.05317 -3.99354,-13.77725c-5.68945,-8.81714 -5.95542,-25.91004 0.30939,-29.95252z" data-paper-data="{&quot;index&quot;:null}" fill="#000000" stroke="none" stroke-width="0"/><path d="M362.21592,135.70644c0.67264,5.07624 -13.90167,35.87095 -30.96678,51.28122c-8.70278,7.85886 -35.84692,11.78248 -44.26037,12.89731c-24.91122,3.30091 -28.03477,-6.62384 -29.05045,-14.28884c-0.77648,-5.85988 11.37076,-9.61006 27.79096,-13.85711c5.0582,-1.30829 9.60912,-5.22103 15.47576,-5.99841c24.91122,-3.30091 59.99522,-37.69918 61.01087,-30.03419z" data-paper-data="{&quot;index&quot;:null}" fill="#000000" stroke="none" stroke-width="0"/></g></g></svg>