<svg version="1.1" xmlns="http://www.w3.org/2000/svg" xmlns:xlink="http://www.w3.org/1999/xlink" width="112.20779" height="72.09382" viewBox="0,0,112.20779,72.09382"><g transform="translate(-146.41488,-157.22287)"><g data-paper-data="{&quot;isPaintingLayer&quot;:true}" fill-rule="nonzero" stroke-linecap="butt" stroke-linejoin="miter" stroke-miterlimit="10" stroke-dasharray="" stroke-dashoffset="0" style="mix-blend-mode: normal"><path d="M210.99243,194.38c0,-7.06678 3.52048,-32.22828 8.41799,-36.5798c4.19502,-3.72735 14.002,11.81325 20.05512,11.81325c4.73221,0 10.14125,-13.79038 13.8446,-11.40553c6.56405,4.22707 5.19363,27.7844 5.19363,36.17208c0,13.11989 -5.24442,22.07087 -18.36431,22.07087c-13.11989,0 -29.14703,-8.95098 -29.14703,-22.07087z" fill="#212121" stroke="#000000" stroke-width="0"/><path d="M248.50906,185.22768c0,-2.79146 1.05604,-5.05439 2.35872,-5.05439c1.30268,0 2.35872,2.26293 2.35872,5.05439c0,2.79146 -1.05604,5.05441 -2.35872,5.05441c-1.30268,0 -2.35872,-2.26294 -2.35872,-5.05441z" fill="#ffffff" stroke="none" stroke-width="0"/><path d="M250.86777,181.68961c0.26053,0 0.47174,1.58405 0.47174,3.53808c0,1.95403 -0.2112,3.53808 -0.47174,3.53808c-0.26053,0 -0.47174,-1.58405 -0.47174,-3.53808c0,-1.95402 0.2112,-3.53808 0.47174,-3.53808z" fill="#000000" stroke="none" stroke-width="0"/><path d="M233.29147,185.51025c0,-2.79146 1.05604,-5.05439 2.35872,-5.05439c1.30268,0 2.35872,2.26293 2.35872,5.05439c0,2.79146 -1.05604,5.05441 -2.35872,5.05441c-1.30268,0 -2.35872,-2.26294 -2.35872,-5.05441z" fill="#ffffff" stroke="none" stroke-width="0"/><path d="M235.65018,181.97217c0.26053,0 0.47174,1.58405 0.47174,3.53808c0,1.95403 -0.2112,3.53808 -0.47174,3.53808c-0.26053,0 -0.47174,-1.58405 -0.47174,-3.53808c0,-1.95402 0.2112,-3.53808 0.47174,-3.53808z" fill="#000000" stroke="none" stroke-width="0"/><path d="M254.23131,209.69934c0,1.19165 -5.3686,12.01367 -6.59242,13.11603c-1.5207,3.70048 -32.10352,7.1927 -59.97524,6.38349c-23.58802,-0.68484 -40.12615,2.161 -41.24877,-5.71588c3.25,-11.33428 12.01142,-30.09079 44.29949,-26.8793c18.80891,1.87081 20.38798,0.06266 27.27071,-0.00808c0.84833,-0.00872 7.04574,8.74887 7.79933,8.82086c7.98144,0.76248 4.79873,2.39817 9.92577,4.44731c8.64179,3.4539 13.80368,-3.14243 13.80368,0.45917z" fill="#212121" stroke="none" stroke-width="NaN"/></g></g></svg>